<?xml version="1.0" encoding="utf-8"?>
<!-- Generator: Adobe Illustrator 23.0.3, SVG Export Plug-In . SVG Version: 6.00 Build 0)  -->
<svg version="1.1" id="Слой_1" xmlns="http://www.w3.org/2000/svg" xmlns:xlink="http://www.w3.org/1999/xlink" x="0px" y="0px"
	 viewBox="0 0 35 35" style="enable-background:new 0 0 35 35;" xml:space="preserve">
<style type="text/css">
	.st0{fill:#FF9900;}
	.st1{fill:none;stroke:#FFFFFF;stroke-width:2.9167;}
	.st2{fill:none;stroke:#FF9900;stroke-width:2.9167;}
	.st3{fill:#FFFFFF;}
</style>
<path class="st0" d="M13.9,1.5h7.3C28,1.5,33.5,7,33.5,13.9v7.3c0,6.8-5.5,12.4-12.4,12.4h-7.3C7,33.5,1.5,28,1.5,21.1v-7.3
	C1.5,7,7,1.5,13.9,1.5z"/>
<path class="st1" d="M13.9,1.5h7.3C28,1.5,33.5,7,33.5,13.9v7.3c0,6.8-5.5,12.4-12.4,12.4h-7.3C7,33.5,1.5,28,1.5,21.1v-7.3
	C1.5,7,7,1.5,13.9,1.5z"/>
<path class="st2" d="M13.9,1.5h7.3C28,1.5,33.5,7,33.5,13.9v7.3c0,6.8-5.5,12.4-12.4,12.4h-7.3C7,33.5,1.5,28,1.5,21.1v-7.3
	C1.5,7,7,1.5,13.9,1.5z"/>
<path class="st3" d="M25.8,12.2c-0.3-0.3-0.8-0.3-1.1,0L15,22l-3.7-3.8c-0.3-0.3-0.8-0.3-1.1,0c-0.3,0.3-0.3,0.8,0,1.2l4.2,4.3
	c0.3,0.3,0.8,0.3,1.1,0l10.2-10.4C26.1,13.1,26.1,12.6,25.8,12.2z"/>
</svg>
