<?xml version="1.0" encoding="utf-8"?>
<!-- Generator: Adobe Illustrator 23.0.3, SVG Export Plug-In . SVG Version: 6.00 Build 0)  -->
<svg version="1.1" id="Слой_1" xmlns="http://www.w3.org/2000/svg" xmlns:xlink="http://www.w3.org/1999/xlink" x="0px" y="0px"
	 viewBox="0 0 532.62 520.03" style="enable-background:new 0 0 532.62 520.03;" xml:space="preserve">
<style type="text/css">
	.st0{fill-rule:evenodd;clip-rule:evenodd;fill:#FFFFFF;filter:url(#Adobe_OpacityMaskFilter);}
	.st1{mask:url(#mask0_1_);}
	.st2{fill-rule:evenodd;clip-rule:evenodd;fill:#FDE6D6;}
	.st3{fill-rule:evenodd;clip-rule:evenodd;fill:#E8E5EA;}
	.st4{fill-rule:evenodd;clip-rule:evenodd;fill:#D8D5DB;}
	.st5{fill-rule:evenodd;clip-rule:evenodd;fill:#FFFFFF;}
	.st6{fill-rule:evenodd;clip-rule:evenodd;fill:#D1CDD3;}
	.st7{fill-rule:evenodd;clip-rule:evenodd;fill:#FFAD69;}
	.st8{fill-rule:evenodd;clip-rule:evenodd;fill:#377ADB;}
	.st9{fill-rule:evenodd;clip-rule:evenodd;fill:#232323;}
	.st10{fill-rule:evenodd;clip-rule:evenodd;fill:#4D8DFF;}
	.st11{fill-rule:evenodd;clip-rule:evenodd;fill:#FFFFFF;filter:url(#Adobe_OpacityMaskFilter_1_);}
	.st12{mask:url(#mask1_1_);}
	.st13{fill-rule:evenodd;clip-rule:evenodd;fill:#D88344;}
	.st14{fill-rule:evenodd;clip-rule:evenodd;fill:#2B2B2B;}
	.st15{fill-rule:evenodd;clip-rule:evenodd;fill:#6EA9FF;}
	.st16{fill-rule:evenodd;clip-rule:evenodd;fill:#FFC84D;}
	.st17{fill-rule:evenodd;clip-rule:evenodd;fill:#FF4E4A;}
</style>
<defs>
	<filter id="Adobe_OpacityMaskFilter" filterUnits="userSpaceOnUse" x="0" y="53.95" width="532.62" height="466.09">
		<feColorMatrix  type="matrix" values="1 0 0 0 0  0 1 0 0 0  0 0 1 0 0  0 0 0 1 0"/>
	</filter>
</defs>
<mask maskUnits="userSpaceOnUse" x="0" y="53.95" width="532.62" height="466.09" id="mask0_1_">
	<path class="st0" d="M0,53.95h532.61v466.09H0V53.95z"/>
</mask>
<g class="st1">
	<path class="st2" d="M499.71,308.2c-1.65,2.65-3.3,5.26-5.05,7.85c-15.35,23.05-34.4,45.2-55.49,65.55
		c-0.95,0.95-1.95,1.9-2.95,2.85c-3.01,2.85-6.11,5.71-9.21,8.45c-5.35,4.9-10.85,9.65-16.45,14.2c-2.95,2.5-5.99,4.96-9,7.35
		c-34.89,27.61-72.19,51.76-108.95,69.95c-11.39,5.7-22.8,10.8-34.05,15.2c-58.71,23.26-113.35,28.7-151.05,5.65
		c-12.01-7.3-22.26-17.5-30.41-30.94c-1.3-2.15-2.6-4.31-3.9-6.45c-12.05-20.15-23.55-40.4-33.65-60.76
		c-2.4-4.75-4.65-9.44-6.84-14.2c-36.65-78.75-50.61-158.45,1.34-236.85c20.2-30.5,53.36-54.25,93.15-71.05
		c11.36-4.85,23.2-9.05,35.5-12.7c6.05-1.9,12.15-3.55,18.4-5.04c7.85-2,15.85-3.75,23.95-5.25c6.21-1.19,12.4-2.25,18.65-3.15
		c2.6-0.35,5.2-0.69,7.8-1.05c18.45-2.35,37.15-3.65,55.76-3.8c2.45-0.05,4.89-0.05,7.3-0.05c11.25,0.05,22.4,0.5,33.4,1.4
		c2.95,0.2,5.9,0.45,8.85,0.79c56.15,5.46,107.65,21.55,142.65,48.25c7.65,5.85,14.5,12.14,20.45,19c1.11,1.25,2.15,2.5,3.15,3.79
		c0.35,0.4,0.65,0.8,1,1.21c7.25,9.1,13.05,18.5,17.41,28.1C543.72,204.95,530.71,258.4,499.71,308.2z"/>
</g>
<path class="st3" d="M386.54,454.64c-13.49,14.14-23.1,34.36-8.59,46.34c16.21,13.38,49.63,10.27,66.91-14.96
	c11.05-16.12,16.89-41.61,4.65-55.9C439.04,417.87,403.09,437.29,386.54,454.64z"/>
<path class="st4" d="M190.37,450.95c-3.35,0.14-6.75,0.25-10.05,0.25c-0.35,0-0.6,0.3-0.6,0.65c0,0.3,0.25,0.6,0.6,0.6
	c3.35,0,6.7-0.11,10.1-0.25c0.35,0,0.6-0.3,0.6-0.65C190.97,451.25,190.67,450.95,190.37,450.95z M170.32,451.05
	c-3.4-0.1-6.8-0.3-10-0.5c-0.45-0.05-0.65,0.2-0.7,0.55c0,0.36,0.25,0.65,0.6,0.7c3.25,0.2,6.65,0.4,10.05,0.5
	c0.35,0,0.65-0.25,0.65-0.6C170.92,451.35,170.67,451.05,170.32,451.05z M210.37,449.5c-3.35,0.35-6.7,0.65-10,0.9
	c-0.35,0-0.6,0.3-0.6,0.65c0.05,0.35,0.3,0.6,0.65,0.6h0.05c3.3-0.25,6.65-0.55,10-0.9c0.35-0.05,0.6-0.35,0.6-0.7
	C211.02,449.7,210.72,449.45,210.37,449.5z M150.32,449.55c-3.3-0.35-6.65-0.85-9.9-1.4c-0.35-0.04-0.65,0.15-0.75,0.51
	c-0.05,0.35,0.2,0.65,0.55,0.7c3.25,0.6,6.6,1.05,9.95,1.45h0.1c0.3,0,0.55-0.2,0.6-0.55C150.92,449.9,150.67,449.6,150.32,449.55z
	 M230.27,446.85c-3.4,0.49-6.7,1-9.95,1.45c-0.35,0.05-0.6,0.35-0.55,0.7c0.05,0.3,0.35,0.55,0.65,0.55h0.05
	c3.25-0.45,6.6-0.95,10-1.5c0.3-0.05,0.55-0.35,0.5-0.7C230.92,447,230.62,446.8,230.27,446.85z M130.62,446.15
	c-3.3-0.75-6.55-1.6-9.7-2.5c-0.35-0.1-0.7,0.05-0.8,0.4c-0.1,0.35,0.1,0.7,0.45,0.8c3.05,0.85,6.15,1.7,9.3,2.45
	c0.15,0.05,0.3,0.05,0.45,0.1h0.15c0.1,0,0.2-0.05,0.3-0.1l0.05-0.05c0.15-0.05,0.2-0.2,0.25-0.36
	C131.12,446.6,130.92,446.25,130.62,446.15z M249.97,443.1c-3.25,0.7-6.6,1.4-9.75,2h-0.1c-0.35,0.05-0.55,0.35-0.5,0.7
	c0.05,0.29,0.35,0.49,0.65,0.49h0.1c2.25-0.4,4.55-0.85,6.85-1.35c1-0.2,2-0.4,3-0.65c0.35-0.05,0.55-0.4,0.5-0.75
	C250.62,443.25,250.32,443,249.97,443.1z M269.47,438.35c-3.15,0.85-6.4,1.7-9.7,2.5c-0.35,0.1-0.55,0.4-0.45,0.75
	c0.05,0.29,0.3,0.5,0.6,0.5c0.05,0,0.1,0,0.15-0.05c3.3-0.8,6.6-1.65,9.75-2.45c0.3-0.1,0.5-0.45,0.45-0.8
	C270.17,438.5,269.82,438.3,269.47,438.35z M111.42,440.44c-1.1-0.4-2.15-0.8-3.25-1.25c-2.05-0.8-4-1.7-5.95-2.6
	c-0.3-0.15-0.7,0-0.85,0.29c-0.15,0.3,0,0.71,0.3,0.85c2.1,1.01,4.3,1.9,6.5,2.8c0.9,0.4,1.85,0.74,2.8,1.1h0.25
	c0.25,0,0.5-0.15,0.6-0.4C111.92,440.95,111.77,440.6,111.42,440.44z M288.72,432.74c-0.65,0.2-1.3,0.45-2,0.65
	c-2.45,0.76-5,1.56-7.55,2.3c-0.35,0.11-0.55,0.4-0.45,0.76c0.1,0.3,0.35,0.44,0.6,0.44h0.2c2.5-0.74,5.05-1.49,7.45-2.25
	c0.75-0.25,1.45-0.45,2.15-0.69c0.3-0.1,0.5-0.45,0.4-0.81C289.42,432.85,289.07,432.65,288.72,432.74z M93.32,432l-0.35-0.25
	c-2.8-1.6-5.5-3.3-8.1-5.1c-0.25-0.2-0.65-0.1-0.85,0.2c-0.2,0.24-0.1,0.65,0.15,0.85c2.6,1.74,5.35,3.5,8.15,5.15l0.4,0.25
	c0.1,0.05,0.2,0.05,0.3,0.05c0.25,0,0.45-0.1,0.55-0.3C93.77,432.55,93.62,432.15,93.32,432z M307.72,426.29
	c-3.15,1.15-6.35,2.26-9.45,3.35c-0.35,0.11-0.5,0.46-0.4,0.76c0.1,0.3,0.3,0.45,0.6,0.45c0.05,0,0.1,0,0.2-0.05
	c3.15-1.05,6.3-2.2,9.45-3.35c0.35-0.1,0.5-0.45,0.4-0.8C308.37,426.29,307.97,426.15,307.72,426.29z M327.22,419.3
	c-0.15-0.35-0.5-0.51-0.8-0.35c-3.05,1.25-6.2,2.55-9.35,3.75c-0.3,0.15-0.45,0.49-0.35,0.85c0.1,0.24,0.35,0.4,0.6,0.4
	c0.05,0,0.15-0.05,0.25-0.05c3.15-1.25,6.3-2.55,9.3-3.8C327.22,419.95,327.37,419.6,327.22,419.3z M76.87,420.7
	c-1.15-0.9-2.3-1.85-3.35-2.75c-1.45-1.25-2.8-2.55-4.15-3.8c-0.25-0.25-0.65-0.25-0.9,0c-0.25,0.24-0.25,0.65,0,0.89
	c1.6,1.51,3.25,3.01,5,4.46c0.85,0.74,1.7,1.5,2.6,2.2c0.1,0.1,0.25,0.15,0.4,0.15c0.2,0,0.35-0.1,0.5-0.25
	C77.17,421.35,77.12,420.95,76.87,420.7z M345.62,411.1c-0.15-0.35-0.55-0.45-0.85-0.29c-2.9,1.35-5.85,2.75-9.15,4.2
	c-0.3,0.1-0.45,0.5-0.3,0.8c0.1,0.25,0.35,0.4,0.55,0.4c0.1,0,0.2-0.05,0.25-0.11c3.3-1.45,6.3-2.79,9.2-4.2
	C345.62,411.75,345.77,411.4,345.62,411.1z M62.47,406.89c-2.2-2.5-4.3-5.14-6.2-7.79c-0.2-0.3-0.6-0.35-0.9-0.15
	c-0.25,0.2-0.3,0.6-0.1,0.85c1.75,2.5,3.7,4.95,5.7,7.3c0.2,0.2,0.35,0.45,0.55,0.65c0.1,0.11,0.3,0.2,0.45,0.2
	c0.15,0,0.3-0.05,0.45-0.15c0.2-0.2,0.25-0.45,0.15-0.7C62.57,407,62.52,406.95,62.47,406.89z M363.57,402.05
	c-0.15-0.3-0.55-0.4-0.85-0.25c-2.85,1.55-5.9,3.1-8.9,4.6c-0.3,0.15-0.4,0.45-0.3,0.7c-0.05,0.05,0,0.1,0,0.15
	c0.1,0.2,0.35,0.35,0.55,0.35c0.1,0,0.2-0.06,0.3-0.1c0.25-0.15,0.55-0.25,0.8-0.4c2.8-1.35,5.5-2.8,8.15-4.2
	C363.62,402.74,363.72,402.35,363.57,402.05z M381.07,392.2c-0.15-0.31-0.55-0.4-0.85-0.26c-0.55,0.3-1.05,0.65-1.6,0.95
	c-2.3,1.4-4.65,2.74-7.1,4.1c-0.3,0.14-0.4,0.55-0.2,0.85c0.1,0.2,0.3,0.29,0.55,0.29c0.1,0,0.2,0,0.3-0.04
	c2.95-1.7,5.9-3.4,8.7-5.05c0.05-0.05,0.1-0.1,0.15-0.15C381.22,392.7,381.22,392.45,381.07,392.2z M50.87,390.7
	c-1.7-2.85-3.25-5.85-4.6-8.85c-0.15-0.3-0.55-0.45-0.85-0.3c-0.3,0.15-0.45,0.5-0.3,0.85c1.4,3,2.95,6.05,4.65,8.95
	c0.1,0.2,0.3,0.3,0.55,0.3c0.1,0,0.2-0.05,0.3-0.1C50.92,391.4,51.02,391,50.87,390.7z M398.12,381.6c0-0.05-0.05-0.1-0.05-0.15
	c-0.2-0.3-0.6-0.36-0.85-0.2c-0.2,0.1-0.35,0.25-0.55,0.35c-1.4,0.95-2.9,1.95-4.35,2.85c-1.15,0.8-2.35,1.55-3.5,2.3
	c-0.3,0.15-0.4,0.55-0.2,0.85c0.1,0.2,0.3,0.3,0.5,0.3c0.1,0,0.25-0.05,0.35-0.1c1.75-1.11,3.45-2.2,5.15-3.36
	c1.1-0.7,2.2-1.39,3.3-2.14C398.12,382.15,398.22,381.85,398.12,381.6z M414.42,369.8c-0.2-0.3-0.6-0.35-0.85-0.15
	c-2.65,2.01-5.4,4.01-8.1,5.96c-0.3,0.2-0.35,0.55-0.15,0.85c0.15,0.15,0.3,0.25,0.5,0.25c0.15,0,0.25,0,0.4-0.1
	c2.7-1.96,5.45-3.95,8.1-5.96C414.62,370.44,414.67,370.04,414.42,369.8z M39.57,363.05c-0.1-0.35-0.45-0.55-0.8-0.45
	c-0.3,0.1-0.5,0.45-0.45,0.74c0.9,3.3,1.9,6.55,3,9.65c0.1,0.3,0.3,0.45,0.6,0.45c0.05,0,0.1,0,0.2-0.05c0.3-0.1,0.5-0.45,0.35-0.79
	C41.37,369.5,40.42,366.29,39.57,363.05z M430.07,357.1c-0.25-0.24-0.65-0.24-0.9-0.04c-2.45,2.1-5,4.24-7.7,6.45
	c-0.25,0.2-0.3,0.6-0.1,0.85c0.15,0.15,0.3,0.24,0.5,0.24c0.15,0,0.25-0.04,0.4-0.15c2.7-2.14,5.3-4.35,7.7-6.45
	C430.27,357.75,430.27,357.4,430.07,357.1z M36.02,343.35c0-0.3-0.3-0.6-0.65-0.55c-0.35,0.05-0.6,0.35-0.55,0.7
	c0.35,3.39,0.8,6.74,1.35,10c0.05,0.29,0.35,0.49,0.65,0.49h0.1c0.35-0.05,0.55-0.35,0.5-0.7
	C36.87,350.04,36.37,346.75,36.02,343.35z M444.77,343.45c-0.25-0.26-0.65-0.26-0.9,0c-2.3,2.3-4.75,4.65-7.2,6.95
	c-0.25,0.2-0.3,0.6-0.05,0.85c0.1,0.15,0.3,0.2,0.45,0.2c0.15,0,0.3-0.05,0.45-0.15c2.45-2.3,4.9-4.65,7.25-6.99
	C445.02,344.05,445.02,343.65,444.77,343.45z M458.32,328.6c-0.25-0.25-0.65-0.2-0.9,0.05c-2.05,2.5-4.3,5.05-6.6,7.55
	c-0.25,0.25-0.2,0.65,0.05,0.89c0.1,0.11,0.25,0.15,0.4,0.15c0.2,0,0.35-0.11,0.45-0.2c2.35-2.55,4.6-5.1,6.7-7.6
	C458.62,329.2,458.57,328.8,458.32,328.6z M35.27,327.85c0-1.45,0-2.95,0.05-4.46c0-0.35-0.25-0.65-0.6-0.65
	c-0.35,0-0.65,0.26-0.65,0.6c-0.05,1.5-0.05,3.01-0.05,4.51c0,1.9,0.05,3.75,0.1,5.6c0,0.3,0.3,0.6,0.6,0.6h0.05
	c0.35-0.05,0.6-0.3,0.6-0.65C35.32,331.55,35.27,329.7,35.27,327.85z M470.42,312.6c-0.3-0.2-0.65-0.15-0.85,0.14
	c-1.85,2.7-3.85,5.45-5.85,8.1c-0.25,0.3-0.15,0.7,0.1,0.9c0.1,0.05,0.25,0.1,0.4,0.1s0.35-0.05,0.5-0.25c2-2.65,4-5.4,5.85-8.15
	C470.77,313.14,470.72,312.74,470.42,312.6z M36.42,302.75c-0.4-0.1-0.65,0.15-0.7,0.5c-0.45,3.4-0.8,6.75-1.1,10.05
	c0,0.35,0.25,0.65,0.6,0.65h0.05c0.3,0,0.6-0.25,0.6-0.55c0.3-3.3,0.65-6.65,1.1-9.95C37.02,303.1,36.77,302.75,36.42,302.75z
	 M480.67,295.3c-0.3-0.1-0.65,0-0.85,0.3c-1.45,2.85-3.1,5.8-4.85,8.7c-0.2,0.29-0.1,0.7,0.2,0.9c0.1,0.05,0.2,0.05,0.3,0.05
	c0.25,0,0.45-0.1,0.55-0.3c1.8-2.95,3.45-5.9,4.95-8.8C481.12,295.85,480.97,295.45,480.67,295.3z M40.02,282.95
	c-0.35-0.05-0.65,0.15-0.75,0.5c-0.7,3.3-1.4,6.6-2,9.85c-0.05,0.35,0.2,0.65,0.5,0.75h0.15c0.3,0,0.55-0.2,0.6-0.5
	c0.6-3.25,1.25-6.55,2-9.85C40.57,283.35,40.37,283.05,40.02,282.95z M488.57,276.85c-0.35-0.1-0.7,0.05-0.8,0.4
	c-1.05,3.05-2.3,6.2-3.65,9.3c-0.15,0.35,0,0.7,0.35,0.85c0.05,0,0.15,0.05,0.25,0.05c0.2,0,0.45-0.15,0.55-0.4
	c1.35-3.15,2.6-6.3,3.65-9.4C489.07,277.35,488.87,277,488.57,276.85z M45.22,263.55c-0.3-0.1-0.65,0.1-0.75,0.45
	c-1,3.21-1.95,6.45-2.8,9.65c-0.05,0.35,0.15,0.7,0.45,0.74c0.05,0.05,0.1,0.05,0.2,0.05c0.25,0,0.5-0.2,0.6-0.45
	c0.8-3.2,1.75-6.45,2.75-9.64C45.77,263.99,45.57,263.65,45.22,263.55z M493.87,257.5c-0.35-0.1-0.65,0.15-0.75,0.45
	c-0.7,3.21-1.55,6.45-2.45,9.76c-0.05,0.3,0.1,0.64,0.45,0.75c0.05,0,0.1,0.05,0.15,0.05c0.3,0,0.55-0.2,0.6-0.5
	c0.9-3.25,1.75-6.55,2.5-9.75C494.42,257.9,494.22,257.55,493.87,257.5z M51.77,244.55c-0.35-0.1-0.7,0.04-0.8,0.35
	c-1.2,3.15-2.35,6.35-3.4,9.5c-0.15,0.3,0.05,0.65,0.35,0.8h0.2c0.3,0,0.5-0.15,0.6-0.4c1.1-3.15,2.25-6.35,3.4-9.45
	C52.22,245.04,52.07,244.65,51.77,244.55z M497.47,237.7c-0.3-0.05-0.65,0.2-0.7,0.55c-0.45,3.3-1,6.6-1.6,9.9
	c-0.05,0.35,0.15,0.65,0.5,0.75h0.1c0.3,0,0.55-0.2,0.65-0.5c0.6-3.35,1.15-6.7,1.6-9.95C498.02,238.1,497.82,237.75,497.47,237.7z
	 M59.37,225.95c-0.3-0.15-0.65,0-0.8,0.35c-1.35,3.06-2.7,6.15-3.95,9.26c-0.1,0.29,0.05,0.7,0.35,0.8c0.1,0.05,0.15,0.05,0.25,0.05
	c0.25,0,0.45-0.15,0.55-0.4c1.25-3.05,2.6-6.15,3.95-9.2C59.87,226.45,59.72,226.1,59.37,225.95z M499.22,217.7
	c-0.3,0.04-0.6,0.24-0.65,0.6c-0.15,3.35-0.35,6.7-0.65,10c-0.05,0.35,0.2,0.65,0.55,0.69h0.05c0.3,0,0.6-0.24,0.6-0.6
	c0.35-3.29,0.55-6.64,0.7-10.05C499.87,218.05,499.57,217.74,499.22,217.7z M68.02,207.8c-0.3-0.15-0.7-0.06-0.85,0.25
	c-1.5,3-3,6.05-4.4,9.04c-0.15,0.35,0,0.71,0.3,0.85c0.1,0.05,0.15,0.05,0.25,0.05c0.25,0,0.45-0.1,0.55-0.35
	c1.45-3,2.95-6.05,4.45-9C68.47,208.3,68.32,207.95,68.02,207.8z M499.82,198.24c0-0.35-0.3-0.6-0.65-0.6c-0.35,0-0.6,0.3-0.6,0.65
	c0.15,3.3,0.25,6.65,0.25,10c0,0.35,0.3,0.65,0.6,0.65c0.35,0,0.65-0.3,0.65-0.65C500.07,204.95,499.97,201.55,499.82,198.24z
	 M77.52,190.05c-0.3-0.15-0.7-0.05-0.85,0.25c-1.7,2.95-3.3,5.95-4.85,8.85c-0.15,0.3-0.05,0.65,0.25,0.8c0.1,0.05,0.2,0.1,0.3,0.1
	c0.2,0,0.45-0.1,0.55-0.35c1.55-2.85,3.15-5.85,4.85-8.8C77.92,190.6,77.82,190.25,77.52,190.05z M497.92,178.15
	c-0.05-0.35-0.35-0.6-0.7-0.5c-0.35,0.05-0.55,0.35-0.5,0.7c0.45,3.3,0.85,6.65,1.15,9.96c0.05,0.35,0.3,0.55,0.65,0.55h0.05
	c0.35,0,0.6-0.3,0.55-0.65C498.82,184.85,498.42,181.5,497.92,178.15z M87.77,172.8c-0.25-0.2-0.65-0.1-0.85,0.2
	c-1.75,2.85-3.5,5.7-5.2,8.6c-0.2,0.3-0.1,0.65,0.2,0.85c0.1,0.05,0.2,0.1,0.3,0.1c0.25,0,0.45-0.1,0.55-0.3
	c1.7-2.9,3.45-5.75,5.2-8.6C88.17,173.35,88.07,173,87.77,172.8z M496.22,167.85h-0.05c-0.55-3.15-1.3-6.3-2.05-9.51
	c-0.05-0.35-0.4-0.54-0.75-0.45c-0.3,0.05-0.55,0.4-0.45,0.75c0.75,3.05,1.4,6.1,2,9.15c0.05,0.2,0.1,0.44,0.15,0.65
	c0.05,0.3,0.3,0.5,0.6,0.5h0.1c0.35-0.1,0.55-0.4,0.5-0.75C496.27,168.1,496.22,167.95,496.22,167.85z M99.02,155.65
	c-0.25-0.2-0.65-0.15-0.85,0.15l-0.25,0.35c-1.85,2.75-3.75,5.55-5.55,8.35c-0.2,0.31-0.15,0.71,0.15,0.9
	c0.1,0.05,0.25,0.1,0.35,0.1c0.2,0,0.4-0.1,0.5-0.3c1.85-2.8,3.7-5.6,5.6-8.35l0.25-0.35C99.37,156.25,99.32,155.85,99.02,155.65z
	 M490.82,146.35c-0.75-2.5-1.55-4.95-2.35-7.35c-0.1-0.35-0.5-0.5-0.8-0.4c-0.35,0.15-0.5,0.5-0.4,0.8c0.95,2.75,1.85,5.55,2.7,8.4
	c0.1,0.4,0.25,0.75,0.35,1.15c0.1,0.3,0.35,0.45,0.6,0.45h0.2c0.3-0.1,0.5-0.45,0.4-0.8C491.32,147.85,491.07,147.09,490.82,146.35z
	 M110.57,139.2c-0.3-0.2-0.7-0.15-0.9,0.15c-1.9,2.7-3.85,5.4-5.8,8.2c-0.2,0.25-0.1,0.65,0.15,0.85c0.15,0.1,0.25,0.1,0.4,0.1
	s0.35-0.05,0.5-0.26c1.9-2.74,3.85-5.49,5.8-8.19C110.92,139.75,110.82,139.4,110.57,139.2z M122.47,123c-0.3-0.2-0.65-0.15-0.9,0.1
	c-2,2.65-4,5.35-6,8.1c-0.2,0.25-0.1,0.65,0.15,0.85c0.1,0.1,0.25,0.15,0.35,0.15c0.2,0,0.4-0.1,0.55-0.3
	c1.95-2.7,3.95-5.4,5.95-8.05C122.77,123.6,122.72,123.2,122.47,123z M484.92,129.55c-0.3-0.75-0.65-1.55-1-2.35
	c-0.15-0.4-0.35-0.85-0.55-1.3c-0.75-1.85-1.6-3.75-2.45-5.6c-0.15-0.3-0.5-0.45-0.85-0.3c-0.3,0.15-0.45,0.5-0.3,0.8
	c0.6,1.29,1.2,2.6,1.75,3.9c0.4,0.85,0.75,1.7,1.05,2.5c0.4,0.85,0.75,1.65,1.05,2.5c0.05,0.1,0.1,0.2,0.15,0.3
	c0.1,0.25,0.3,0.4,0.55,0.4c0.1,0,0.15,0,0.25-0.05c0.25-0.1,0.45-0.35,0.4-0.65C484.97,129.65,484.97,129.6,484.92,129.55z
	 M134.82,107.1c-0.3-0.19-0.65-0.15-0.9,0.1c-2.05,2.5-4,5.1-6,7.65c-0.05,0.1-0.15,0.15-0.2,0.25c-0.25,0.3-0.2,0.7,0.1,0.9
	c0.1,0.1,0.25,0.15,0.35,0.15c0.15,0,0.3-0.05,0.4-0.15c0.05-0.05,0.05-0.05,0.1-0.1c2.1-2.7,4.15-5.3,6.25-7.9
	C135.12,107.75,135.07,107.35,134.82,107.1z M476.52,111.25c-0.65-1.2-1.25-2.35-1.9-3.5c-0.95-1.8-1.95-3.55-3-5.3
	c-0.15-0.3-0.55-0.4-0.85-0.25c-0.3,0.2-0.4,0.55-0.2,0.85c1.05,1.8,2.05,3.65,3.1,5.55c0.55,1.05,1.15,2.15,1.7,3.25
	c0.15,0.2,0.35,0.3,0.55,0.3c0.1,0,0.2,0,0.3-0.06C476.52,111.95,476.67,111.55,476.52,111.25z M147.67,91.65
	c-0.3-0.2-0.65-0.15-0.9,0.1c-2.15,2.5-4.35,5.05-6.5,7.65c-0.2,0.3-0.2,0.7,0.1,0.9c0.1,0.1,0.25,0.15,0.4,0.15
	c0.15,0,0.35-0.1,0.45-0.25c2.15-2.6,4.35-5.15,6.5-7.65C147.92,92.3,147.92,91.9,147.67,91.65z M466.32,93.85
	c-1.8-2.8-3.7-5.55-5.65-8.3c-0.2-0.3-0.6-0.35-0.9-0.15c-0.25,0.2-0.35,0.6-0.15,0.9c1.95,2.7,3.9,5.45,5.7,8.25
	c0.1,0.15,0.3,0.25,0.5,0.25c0.1,0,0.25,0,0.35-0.1C466.47,94.55,466.52,94.15,466.32,93.85z M161.07,76.7
	c-0.25-0.2-0.65-0.2-0.85,0.05c-2.3,2.4-4.55,4.9-6.8,7.4c-0.25,0.3-0.2,0.65,0.05,0.9c0.1,0.1,0.25,0.15,0.4,0.15
	c0.15,0,0.35-0.05,0.45-0.2c2.25-2.5,4.55-5,6.8-7.4C161.37,77.35,161.32,76.95,161.07,76.7z M454.57,77.55
	c-2.1-2.65-4.3-5.25-6.5-7.75c-0.2-0.25-0.6-0.25-0.85-0.05c-0.3,0.25-0.3,0.65-0.05,0.9c2.15,2.45,4.35,5.05,6.4,7.65
	c0.15,0.15,0.3,0.25,0.5,0.25c0.15,0,0.25-0.05,0.4-0.15C454.72,78.2,454.77,77.8,454.57,77.55z M175.17,62.4
	c-0.25-0.25-0.6-0.25-0.85,0c-2.35,2.25-4.75,4.65-7.15,7.09c-0.25,0.26-0.25,0.65,0,0.86c0.1,0.15,0.25,0.2,0.45,0.2
	c0.15,0,0.3-0.05,0.45-0.2c2.35-2.4,4.75-4.8,7.1-7.05C175.42,63.05,175.42,62.65,175.17,62.4z M441.27,62.45
	c-2.35-2.4-4.75-4.8-7.2-7.05c-0.25-0.25-0.65-0.25-0.9,0c-0.2,0.25-0.2,0.65,0.05,0.9c2.45,2.25,4.85,4.65,7.15,7
	c0.1,0.1,0.25,0.2,0.45,0.2c0.15,0,0.3-0.05,0.4-0.2C441.47,63.05,441.47,62.65,441.27,62.45z M190.07,48.9
	c-0.25-0.25-0.65-0.3-0.9-0.05c-1.8,1.55-3.6,3.1-5.35,4.7c-0.45,0.35-0.85,0.75-1.25,1.15c-0.3,0.25-0.65,0.5-0.95,0.8
	c-0.25,0.24-0.25,0.65-0.05,0.9c0.15,0.1,0.3,0.2,0.5,0.2c0.15,0,0.3-0.05,0.4-0.15c0.55-0.5,1.1-1,1.65-1.5l1.8-1.65
	c1.35-1.2,2.7-2.35,4.05-3.5C190.22,49.55,190.27,49.15,190.07,48.9z M426.57,48.7c-2.55-2.2-5.2-4.3-7.8-6.35
	c-0.3-0.2-0.7-0.15-0.9,0.1c-0.2,0.3-0.15,0.7,0.1,0.9c2.65,2.01,5.25,4.15,7.8,6.31c0.1,0.1,0.25,0.15,0.4,0.15
	c0.15,0,0.35-0.1,0.45-0.25C426.87,49.3,426.82,48.9,426.57,48.7z M205.77,36.4c-0.2-0.25-0.6-0.35-0.85-0.1c-2.65,1.9-5.3,4-8,6.1
	c-0.25,0.25-0.3,0.6-0.1,0.9c0.15,0.15,0.3,0.25,0.5,0.25c0.15,0,0.25-0.05,0.4-0.15c2.65-2.15,5.3-4.2,7.95-6.1
	C205.92,37.1,205.97,36.7,205.77,36.4z M410.62,36.4c-2.75-1.95-5.55-3.8-8.4-5.6c-0.25-0.15-0.65-0.1-0.85,0.2
	c-0.2,0.3-0.1,0.7,0.2,0.85c2.8,1.8,5.6,3.65,8.35,5.55c0.1,0.1,0.25,0.1,0.35,0.1c0.2,0,0.4-0.05,0.5-0.25
	C410.97,36.95,410.92,36.6,410.62,36.4z M222.47,25.2c-0.2-0.25-0.6-0.35-0.85-0.2c-2.85,1.75-5.7,3.55-8.5,5.45
	c-0.3,0.2-0.35,0.6-0.15,0.9c0.1,0.15,0.3,0.25,0.5,0.25c0.15,0,0.25-0.05,0.35-0.1c2.8-1.9,5.6-3.7,8.45-5.4
	C222.57,25.9,222.62,25.5,222.47,25.2z M393.62,25.65c-2.95-1.65-5.95-3.3-8.9-4.81c-0.3-0.15-0.7,0-0.85,0.31
	c-0.15,0.3,0,0.65,0.3,0.84c2.95,1.5,5.9,3.06,8.8,4.7c0.1,0.1,0.2,0.1,0.3,0.1c0.25,0,0.45-0.1,0.55-0.3
	C394.02,26.2,393.92,25.8,393.62,25.65z M240.12,15.7c-0.15-0.35-0.5-0.45-0.85-0.3c-2.95,1.4-6,2.95-8.95,4.55
	c-0.3,0.2-0.4,0.55-0.25,0.85c0.1,0.25,0.35,0.35,0.55,0.35c0.1,0,0.2-0.05,0.3-0.1c2.95-1.6,5.95-3.1,8.9-4.55
	C240.12,16.35,240.27,16,240.12,15.7z M375.62,16.5c-3.05-1.35-6.15-2.7-9.25-3.95c-0.3-0.1-0.7,0.05-0.8,0.35
	c-0.15,0.35,0,0.7,0.35,0.85c3.1,1.2,6.2,2.55,9.2,3.9c0.1,0.05,0.15,0.05,0.25,0.05c0.25,0,0.5-0.15,0.6-0.35
	C376.12,17,375.97,16.65,375.62,16.5z M257.97,7.8c-3.15,1.05-6.35,2.25-9.45,3.5c-0.35,0.15-0.5,0.5-0.35,0.8
	c0.1,0.25,0.35,0.4,0.55,0.4c0.1,0,0.2,0,0.25-0.05c3.1-1.25,6.25-2.45,9.4-3.5c0.3-0.1,0.5-0.45,0.35-0.75
	C258.62,7.85,258.27,7.7,257.97,7.8z M356.92,9.05c-3.2-1.1-6.4-2.1-9.6-3c-0.35-0.1-0.7,0.1-0.8,0.45c-0.1,0.3,0.1,0.65,0.45,0.75
	c3.15,0.9,6.4,1.9,9.55,3h0.2c0.25,0,0.5-0.15,0.6-0.4C357.42,9.5,357.27,9.15,356.92,9.05z M277.42,2.6c-3.3,0.64-6.6,1.4-9.8,2.3
	c-0.35,0.05-0.55,0.4-0.45,0.75c0.05,0.25,0.3,0.45,0.6,0.45h0.15c3.2-0.85,6.5-1.61,9.75-2.25c0.3-0.05,0.55-0.4,0.5-0.75
	C278.07,2.8,277.77,2.55,277.42,2.6z M337.52,3.6c-3.3-0.7-6.65-1.35-9.9-1.85c-0.35-0.05-0.7,0.2-0.75,0.5
	c-0.05,0.35,0.2,0.7,0.55,0.75c3.25,0.5,6.55,1.1,9.85,1.8c0.05,0.05,0.1,0.05,0.1,0.05c0.3,0,0.55-0.2,0.65-0.5
	C338.07,4,337.87,3.7,337.52,3.6z M297.47,0.15h-0.05c-3.35,0.2-6.75,0.5-10.05,0.9c-0.35,0.05-0.6,0.35-0.55,0.7
	c0.05,0.3,0.3,0.55,0.65,0.55h0.05c3.3-0.4,6.65-0.7,10-0.9c0.3,0,0.6-0.3,0.55-0.66C298.07,0.45,297.77,0.15,297.47,0.15z
	 M317.57,0.55c-3.3-0.3-6.7-0.5-10.05-0.55c-0.35,0-0.65,0.25-0.65,0.6s0.25,0.65,0.6,0.65c3.35,0.05,6.7,0.25,10,0.55h0.05
	c0.35,0,0.6-0.25,0.65-0.6C318.17,0.84,317.92,0.55,317.57,0.55z"/>
<path class="st5" d="M497.32,135.05l-6.5,11.3l-0.85,1.45l-9.4,16.25l-2.05,3.6l-60.3,104.4l-10,17.3l-10-17.3l-35.75-61.9l-5.5-9.5
	l-12.26-21.25l-28.7-49.7h184.4L497.32,135.05z M311.72,127.2l32.99,57.15l9.4,16.3l5.51,9.5l35.74,61.9l12.86,22.3l12.9-22.3
	l59.64-103.35l2.1-3.6l16.3-28.2l4.5-7.85l0.4-0.65l0.7-1.2H311.72z"/>
<path class="st6" d="M342.81,382.1c0.15,0.55-0.1,1.36-0.65,2.35c-1.25,2.35-4.24,5.7-7.4,8.45c-0.65,0.56-1.3,1.1-1.95,1.55
	c-1.9,1.55-3.75,2.76-5.2,3.2c-5.1,1.7-27.15-1.2-32.5-4.1c-0.35-0.2-0.6-0.4-0.85-0.65c-2.2,0.15-5.45,0.2-9.4,0
	c-1.8-0.1-3.75-0.25-5.85-0.55c-4.95-0.55-10.6-1.7-16.7-3.65c-3-0.9-6.15-2.05-9.35-3.45c-3-1.35-6.1-2.9-9.2-4.7
	c-0.75-0.4-1.3-0.9-1.95-1.3c0.6,4.6,1.2,9.14,1.85,13.64c0.2,1.25,0.4,2.5,0.55,3.7c0.55,3.55,1.1,7.05,1.7,10.5
	c2.35,13.55,5.05,26.3,8.3,37.7c0.3,1.2,0.65,2.4,1,3.55c-1.05,0.15-2.1,0.3-3.1,0.45c0.25,1.15,0.45,2.35,0.65,3.55
	c2.5,13.5,4.4,30.15,5.8,47.25c-58.7,23.25-113.35,28.7-151.05,5.65c-12-7.3-22.25-17.5-30.4-30.95c-1.3-2.15-2.6-4.3-3.9-6.45
	c0.25-7.05,0.55-13,0.8-17.05c-0.95-0.1-1.45-0.1-1.45-0.1c0-8.15,0.35-18.85,0.9-31.2c0.05-0.5,0.05-1,0.05-1.55
	c0.2-3.5,0.4-7.1,0.65-10.85c0.2-4.6,0.5-9.3,0.8-14.2c0.45-7.1,0.95-14.5,1.5-22c-12.2-3.25-22.4-6.75-28.15-10.25
	c-7.5-4.55-10.35-10.9-10.15-17.15c-0.1-1.25-0.1-2.6,0.2-4c2.85-9.45,12.65-37.6,23.75-65.55l-12.3-4.2
	c0,0,35.95-64.05,57.05-78.15c0.1-0.05,0.15-0.1,0.25-0.15c7.45-6.9,18.2-11.35,34.3-13.15c0.1-13.35-0.95-35.9-2.05-53.15
	c-5.25-1.2-8.8-5.55-10.8-9.15c-0.25-0.4-0.5-0.8-0.65-1.15c-0.8-1.55-1.25-2.85-1.45-3.5c-1.1-4.4-0.05-8.05,2.1-10.4
	c-0.45-3.65-1.1-9.65-1.35-15.95c-0.5-11.6,0.15-24.3,5.4-25.45c-0.05-0.15-0.15-0.25-0.2-0.35c-1.35-4.15,1.1-8.75,1.2-8.9
	l2.2,1.15c0,0.05-2,3.85-1.05,6.95c4.2-4.65,18.35-6.15,33.2-5.3c0.85,0,1.75,0.1,2.6,0.15c3.05,0.25,6.1,0.55,9.1,1
	c1,0.1,1.95,0.25,2.9,0.45c0.5,0.05,1.05,0.15,1.55,0.25c3.25,0.55,6.35,1.25,9.2,2.05c4.9,1.35,9,3.05,11.75,5
	c0.9,0.6,1.6,1.25,2.2,1.9c2.5,2.9,2.9,4.95,1.8,6.3c-0.65,0.75-1.7,1.3-3.1,1.7c0.6,4.2,0.85,7.85,0.95,11.2
	c0.3,0.8,0.6,1.65,0.9,2.5c0.25,0.75,0.5,1.55,0.75,2.35c0.05,0.05,0.1,0.05,0.15,0.1c0.3,0.25,0.6,0.45,0.9,0.7
	c1.1,1,2.1,2.25,2.85,3.9l-2.25,1.05c-0.05-0.1-0.1-0.15-0.15-0.25c0.6,2.55,1.15,5.2,1.55,8c0.6,4.15,1.25,8.3,1.9,12.35
	c0.2,1.55,0.4,3.1,0.6,4.6c0.45,3.1,0.85,6.15,1.1,9.05c0.1,0.9,0.2,1.75,0.2,2.6c1.05,13.2-0.2,24.15-8.1,29.65
	c-1.5,1.1-3.3,2-5.35,2.6c-2.6,0.85-5.7,1.3-9.3,1.35c0.1,3.5,0.3,6.9,0.6,10.1c0.15,1.25,0.3,2.5,0.5,3.65
	c0.15,1.2,0.35,2.4,0.6,3.5c13.35,3.2,23.4,8.6,29.75,15.95c0.3,0.3,0.65,0.6,0.95,0.95c3.55,3.45,7,8.76,10.25,15.1
	c4.1,7.95,7.95,17.6,11.35,27.25c0.25,0.75,0.5,1.55,0.8,2.3c0.25,0.85,0.55,1.65,0.8,2.5c1.4,4.15,2.7,8.3,3.9,12.26
	c0.9,2.94,1.7,5.8,2.5,8.49c3.85,13.55,6.1,23.55,6.1,23.55l-6.1,1.45l-2.5,0.6l-1.8,0.45c0.6,2.39,1.2,4.74,1.8,7.14
	c0.05,0.25,0.15,0.55,0.2,0.81c0.8,3.1,1.55,6.25,2.3,9.29c3.85,15.65,7.1,30.15,8.55,39.75c4.3,3.55,7.45,9.1,12.1,14.26
	c4.7,5.2,11.05,9.89,21.8,11.74c0.05,0,0.05,0.05,0.1,0.05c4.21-3.3,12-7.2,16.75-8.65c0.65-0.15,1.21-0.3,1.7-0.4
	c0.4-0.1,0.76-0.15,1.05-0.15c2.01-0.4,2.3-0.25,3.5,0.5c0.45,0.35,1.05,0.8,2,1.35c3.9,2.3,8,4.45,11.55,6.55
	c4.4,2.55,7.85,5,8.85,7.6C342.71,381.75,342.76,381.95,342.81,382.1z"/>
<path class="st7" d="M357.67,367.42c-3.57-2.13-2.52-2.4-6.55-1.66c-4.35,0.8-13.71,5.3-18.45,9.04c-0.05-0.01-0.08-0.03-0.14-0.04
	c-21.44-3.68-25.21-18.84-33.88-26.02c-4.8-31.48-29.01-117.15-29.01-117.15l-36.48,13.56c5.32,36.1,26.71,104.75,32.26,120.24
	c0.91,1.88,2.08,3.36,3.4,4.58c1.82,3.85,5.09,7.55,10.38,10.61c21.87,12.65,42.57,12.82,50.49,12.32c0.26,0.26,0.55,0.48,0.88,0.66
	c5.37,2.93,27.38,5.8,32.52,4.11c5.23-1.71,15.92-12.54,15.15-15.54C376.97,377.22,366.6,372.78,357.67,367.42z"/>
<path class="st8" d="M236.9,208.45c-10.3,23.15-6.51,96.5-6.51,96.5l65.82-15.69C296.21,289.26,264.06,147.38,236.9,208.45z"/>
<path class="st9" d="M292.61,484.4c-11.39,5.71-22.8,10.8-34.05,15.2c-58.7,23.25-113.35,28.7-151.05,5.65
	c0.55-21.65,1.3-44.2,1.9-54.45c0.1-1.2,0.2-2.25,0.25-3.1l20.2-0.4h0.9l0.05-0.05l109.3-2.14h0.1l6.99-0.15l7-0.15l32.3-0.65
	c0.35,1.5,0.7,3.1,1,4.71C289.61,459.05,291.26,471.3,292.61,484.4z"/>
<path class="st10" d="M188.55,177.43c-39.27,1.29-52.54,14.55-59.32,37.48C121.54,240.93,108,398.15,108,450.69
	c0,0,117.53,8.33,182.63-2.35c-20.42-68.95-22.62-192.93-23.03-229.88C267.3,190.76,238.33,175.78,188.55,177.43z"/>
<defs>
	<filter id="Adobe_OpacityMaskFilter_1_" filterUnits="userSpaceOnUse" x="6.8" y="42.55" width="523.32" height="364.53">
		<feColorMatrix  type="matrix" values="1 0 0 0 0  0 1 0 0 0  0 0 1 0 0  0 0 0 1 0"/>
	</filter>
</defs>
<mask maskUnits="userSpaceOnUse" x="6.8" y="42.55" width="523.32" height="364.53" id="mask1_1_">
	<path class="st11" d="M0,520.03h532.61V0H0V520.03z"/>
</mask>
<g class="st12">
	<path class="st5" d="M194.96,314.3h57.2v-69.35h-57.2V314.3z M192.46,316.8h62.2v-74.35h-62.2V316.8z"/>
	<path class="st9" d="M223.14,113.14c3.86-2.92,24.04-0.27,18.24-41.36c-2.12-14.99-16.2-4.98-26.16-2.98
		c-9.97,2-3.63,45.08-3.63,45.08L223.14,113.14z"/>
	<path class="st7" d="M172.9,103.3c1.68,10.89,5.02,69.81,3.63,83.49c-1.4,13.69,64.78,17.59,56.13,2.51
		c-8.65-15.08-2.51-65.07-2.51-65.07L172.9,103.3z"/>
	<path class="st13" d="M177.48,104.96l52.65,19.28c0,0-3.55,29.11-1.41,49.61c-40.15-3.1-50.46-53.82-51.13-63.58
		C177.48,108.43,177.42,106.66,177.48,104.96z"/>
	<path class="st7" d="M247.04,101.44c4.88,33.63,13.16,67.18-27.6,61.65c-40.78-5.52-47.11-57.79-46.99-67.65
		C173.08,42.83,237.45,35.3,247.04,101.44z"/>
	<path class="st9" d="M242.69,63.89c-9.59-11.15-63.54-15.35-72.47-5.48c-0.98-3.1,1.02-6.91,1.04-6.95l-2.2-1.18
		c-0.11,0.19-2.54,4.78-1.21,8.92c0.04,0.13,0.15,0.22,0.2,0.35c-9.87,2.17-3.57,45.06-3.57,45.06l11.56-0.74
		c3.86-2.91,17.28-23.4,20.24-35.77C217.39,71.66,254.89,78.05,242.69,63.89z"/>
	<path class="st7" d="M236.96,368.61c-4.13,0.23-20.15,3.01-25.78,1.71c-18.9-4.42-67.63-26.27-93.85-38.48
		c16.14-35.03,39.89-97.02,39.89-97.02l-37.35-10.96c-17.33,32.1-41.27,99.91-46.09,115.64c-0.27,1.41-0.29,2.74-0.21,4.01
		c-0.17,6.23,2.68,12.58,10.17,17.14c20.76,12.64,99.08,24.91,120.77,27.31c0.4,0.81,0.93,1.54,1.79,2.03
		c5.3,2.98,29.44,5.21,34.41,6.09c6.23,1.1,25.12,2.7,24.3,0.17C263.68,392.11,256.67,367.51,236.96,368.61z"/>
	<path class="st10" d="M142.28,191.62c-21.07,14.08-57.02,78.13-57.02,78.13l64.03,21.88C149.29,291.62,197.85,154.48,142.28,191.62
		z"/>
	<path class="st9" d="M212.71,99.78c-0.13,1.64,0.75,3.04,1.98,3.15c1.23,0.09,2.33-1.15,2.46-2.79c0.13-1.64-0.76-3.05-1.99-3.15
		C213.94,96.89,212.84,98.14,212.71,99.78z"/>
	<path class="st9" d="M238.68,100.47c-0.13,1.64,0.75,3.04,1.98,3.14c1.23,0.1,2.33-1.15,2.46-2.79c0.13-1.64-0.76-3.05-1.99-3.15
		C239.92,97.58,238.81,98.83,238.68,100.47z"/>
	<path class="st9" d="M206.32,90.57l-2.1-1.36c4.42-6.77,11.84-5.2,12.16-5.13l-0.54,2.44C215.6,86.47,209.78,85.28,206.32,90.57z"
		/>
	<path class="st9" d="M245.64,93.69c-2.64-5.75-8.58-5.44-8.82-5.41l-0.18-2.5c0.32-0.02,7.89-0.49,11.26,6.86L245.64,93.69z"/>
	<path class="st9" d="M221.05,130.75c-4.23,0-12.35-1.2-17.4-9.59l2.14-1.29c6.12,10.17,17.09,8.32,17.55,8.23l0.46,2.46
		C223.76,130.56,222.71,130.75,221.05,130.75z"/>
	<path class="st13" d="M240.28,119.35l-12.14-0.17l0.04-2.5l8.75,0.12l-5.4-18.43l2.4-0.71L240.28,119.35z"/>
	<path class="st7" d="M182.79,107.58c3.68,8.3,8.29,16.33-3.27,17.82c-11.57,1.49-16.95-11.49-17.6-14.04
		C158.42,97.79,175.54,91.26,182.79,107.58z"/>
	<path class="st5" d="M495.89,407.08H17.45c-3.91,0-7.1-3.2-7.1-7.1s3.19-7.1,7.1-7.1h478.44c3.9,0,7.1,3.2,7.1,7.1
		S499.8,407.08,495.89,407.08z"/>
	<path class="st4" d="M194.51,407.08H13.9c-3.9,0-7.1-3.2-7.1-7.1s3.19-7.1,7.1-7.1h180.61c3.91,0,7.1,3.2,7.1,7.1
		S198.42,407.08,194.51,407.08z"/>
	<path class="st14" d="M472.46,381.61H324.05c-5.66,0-9.42-4.6-8.39-10.27l16.18-89.01c1.04-5.67,6.46-10.27,12.14-10.27h148.4
		c5.67,0,9.43,4.6,8.4,10.27l-16.18,89.01C483.57,377.01,478.14,381.61,472.46,381.61z"/>
	<path class="st9" d="M476.09,381.61H327.68c-5.67,0-9.42-4.6-8.39-10.27l16.18-89.01c1.03-5.67,6.46-10.27,12.13-10.27h148.4
		c5.68,0,9.44,4.6,8.4,10.27l-16.19,89.01C487.2,377.01,481.76,381.61,476.09,381.61z"/>
	<path class="st5" d="M426.56,344.85h-35.95l6.55-35.99h35.95L426.56,344.85z M395.06,306.35l-7.45,40.99h41l7.5-40.99H395.06z"/>
	<path class="st9" d="M298.02,384.46c0,4.64,3.8,8.43,8.43,8.43H461.7c4.64,0,8.44-3.79,8.44-8.43H298.02z"/>
	<path class="st14" d="M252.92,384.46c0,4.64,3.79,8.43,8.43,8.43h61.05c4.64,0,8.43-3.79,8.43-8.43H252.92z"/>
	<path class="st8" d="M423.45,108.23c-5.26,0-9.52,4.26-9.52,9.52h19.04C432.97,112.49,428.71,108.23,423.45,108.23z"/>
	<path class="st10" d="M423.46,108.23v92.43c0,5.26-4.27,9.49-9.54,9.49h-69.21v-92.38c0-5.27,4.27-9.54,9.49-9.54H423.46z"/>
	<path class="st15" d="M404.43,200.66l-69.24-0.01c0,5.26,4.26,9.51,9.52,9.51l69.2-0.01C408.66,210.15,404.43,205.92,404.43,200.66
		z"/>
	<path class="st5" d="M355.07,123.75h58.05v-2.5h-58.05V123.75z"/>
	<path class="st5" d="M355.07,133.22h58.05v-2.5h-58.05V133.22z"/>
	<path class="st5" d="M355.07,142.69h58.05v-2.5h-58.05V142.69z"/>
	<path class="st5" d="M355.07,152.16h58.05v-2.5h-58.05V152.16z"/>
	<path class="st5" d="M355.07,161.63h58.05v-2.5h-58.05V161.63z"/>
	<path class="st5" d="M355.07,171.1h58.05v-2.5h-58.05V171.1z"/>
	<path class="st5" d="M355.07,180.57h58.05v-2.5h-58.05V180.57z"/>
	<path class="st5" d="M355.07,190.04h58.05v-2.5h-58.05V190.04z"/>
	<path class="st16" d="M520.18,157.89c-13.25,13.25-34.74,13.25-47.99,0c-13.25-13.26-13.25-34.74,0-48
		c13.26-13.26,34.75-13.26,47.99,0C533.43,123.15,533.43,144.64,520.18,157.89z"/>
	<path class="st9" d="M496.19,133.89l26.96,26.96c-14.79,14.8-39.14,14.8-53.93,0c-6.33-6.34-10.24-14.71-11.02-23.64L496.19,133.89
		z"/>
	<path class="st5" d="M496.19,133.89l-37.88,4.42c-0.5-4.28-0.27-8.61,0.68-12.81c0.94-4.2,2.6-8.21,4.88-11.86L496.19,133.89z"/>
	<path class="st9" d="M330.07,84.8h-28.75c-3.71,0-6.75-3.03-6.75-6.75V49.3c0-3.71,3.04-6.75,6.75-6.75h28.75
		c3.71,0,6.75,3.04,6.75,6.75v28.74C336.82,81.76,333.78,84.8,330.07,84.8z"/>
	<path class="st17" d="M321.67,93.2h-28.75c-3.71,0-6.75-3.03-6.75-6.75V57.71c0-3.71,3.04-6.75,6.75-6.75h28.75
		c3.71,0,6.75,3.04,6.75,6.75v28.74C328.42,90.17,325.38,93.2,321.67,93.2z"/>
</g>
</svg>
